<svg xmlns="http://www.w3.org/2000/svg" version="1.1" xmlns:xlink="http://www.w3.org/1999/xlink" width="2000" height="796" viewBox="0 0 2000 796"><svg xml:space="preserve" width="2000" height="796" data-version="2" data-id="lg_xqh3KueWcYMo4aZuzw" viewBox="0 0 796 796" x="0" y="0"><rect width="100%" height="100%" fill="transparent"></rect><g transform="matrix(7.95 0 0 -7.95 402.05 402.05)"><linearGradient id="a" x1="0" x2="1" y1="0" y2="0" gradientUnits="objectBoundingBox"><stop offset="0%" stop-color="#ffa62e"></stop><stop offset="100%" stop-color="#f71b3d"></stop></linearGradient><filter id="b" width="158%" height="158%" x="-29%" y="-29%"><feGaussianBlur in="SourceAlpha" stdDeviation="3"></feGaussianBlur><feOffset dx="3" dy="-3" result="oBlur"></feOffset><feFlood flood-color="#2b2a2a" flood-opacity="1"></feFlood><feComposite in2="oBlur" operator="in"></feComposite><feMerge><feMergeNode></feMergeNode><feMergeNode in="SourceGraphic"></feMergeNode></feMerge></filter><path fill="url(#a)" d="M50 100.08C22.355 100.047-.047 77.645-.08 50-.047 22.355 22.355-.047 50-.08c27.645.033 50.047 22.435 50.08 50.08-.033 27.645-22.435 50.047-50.08 50.08m0-96.16C24.59 3.92 3.92 24.59 3.92 50S24.59 96.08 50 96.08 96.08 75.41 96.08 50 75.41 3.92 50 3.92" filter="url(#b)" paint-order="stroke" transform="translate(-50 -50)"></path></g><g transform="translate(249.83 400)scale(2.17)"><linearGradient id="c" x1="0" x2="1" y1="0" y2="0" gradientUnits="objectBoundingBox"><stop offset="0%" stop-color="#ffa62e"></stop><stop offset="100%" stop-color="#f71b3d"></stop></linearGradient><path fill="url(#c)" d="M0-99.817A99.817 99.817 0 1 0 0 99.817 99.817 99.817 0 1 0 0-99.817"></path></g><rect width="289" height="411.32" x="-144.5" y="-205.66" fill="none" rx="0" ry="0" transform="translate(458 400.16)"></rect><path fill="#fff" d="M391.4 514.51h-56.06q2.55 0 5.1-5.1 2.54-5.1 2.54-16.74V317.95q0-11.65-2.54-16.57-2.55-4.91-5.1-5.27h56.06q-2.55 0-5.1 5.09-2.55 5.1-2.55 17.11v59.33q0 8.01 2.19 9.47 2.18 1.45 12.74 1.45h3.64q16.74 0 34.21-8.92 17.47-8.91 31.31-24.93 13.83-16.02 19.29-36.4 3.27-11.65 1.27-16.74-2-5.1-4.91-5.46h77.53q-3.64 0-10.92 5.09-7.28 5.1-14.92 17.11-9.47 14.92-17.11 25.48-7.65 10.56-14.74 18.2-7.1 7.64-15.47 14.92-11.29 9.47-20.02 13.84-8.74 4.36-13.11 6.18v1.1q8.74 1.82 20.75 6.73t27.66 15.83q18.93 13.47 32.95 30.76 14.01 17.29 26.39 37.68 8.37 13.46 15.28 19.47 6.92 6.01 10.56 6.01h-76.44q4 0 6.55-4.74 2.55-4.73-1.45-15.28-4.74-13.47-14.56-27.12-9.83-13.65-24.39-24.94-14.56-11.28-33.49-18.01-18.93-6.74-41.86-6.74h-4q-11.29 0-13.11 1.64t-1.82 10.37v62.98q0 11.64 2.55 16.74t5.1 5.1"></path></svg></svg>
